#N canvas 250 451 640 370 10;
#X obj 78 33 inlet;
#X obj 78 55 t b;
#X obj 121 33 loadbang;
#X obj 141 55 inlet;
#X obj 182 139 inlet;
#X obj 78 322 outlet;
#X obj 78 164 t f b;
#X obj 78 275 t b f;
#X obj 78 139 v \$1;
#X obj 78 300 v \$1;
#X obj 105 225 v \$2;
#X obj 135 78 f \$3;
#X obj 121 181 f \$4;
#X text 390 36 Arguments:;
#X text 390 56 1: Base value name (required);
#X text 390 76 2: Modifier name (required);
#X text 390 96 3: Base value (optional);
#X text 390 116 4: Modifier value (optional);
#X text 233 185 if \$4 != \$2;
#X text 233 219 set \$2 = \$4;
#X text 246 85 if \$3 != \$1;
#X text 246 117 set \$1 = \$3;
#X text 246 101 and \$3 != 0;
#X text 233 202 and \$4 != 0;
#N canvas 268 182 450 300 shouldSetvalue 0;
#X obj 185 92 !=;
#X obj 136 26 inlet;
#X obj 205 70 v \$1;
#X obj 153 92 != 0;
#X obj 153 117 +;
#X obj 136 47 t f f f b;
#X obj 153 139 == 2;
#X obj 136 169 spigot;
#X obj 136 191 outlet;
#X connect 0 0 4 1;
#X connect 1 0 5 0;
#X connect 2 0 0 1;
#X connect 3 0 4 0;
#X connect 4 0 6 0;
#X connect 5 0 7 0;
#X connect 5 1 3 0;
#X connect 5 2 0 0;
#X connect 5 3 2 0;
#X connect 6 0 7 1;
#X connect 7 0 8 0;
#X restore 135 103 pd shouldSetvalue;
#N canvas 268 182 450 300 shouldSetValue 0;
#X obj 185 92 !=;
#X obj 136 26 inlet;
#X obj 153 92 != 0;
#X obj 153 117 +;
#X obj 136 47 t f f f b;
#X obj 153 139 == 2;
#X obj 136 169 spigot;
#X obj 136 191 outlet;
#X obj 205 70 v \$2;
#X connect 0 0 3 1;
#X connect 1 0 4 0;
#X connect 2 0 3 0;
#X connect 3 0 5 0;
#X connect 4 0 6 0;
#X connect 4 1 2 0;
#X connect 4 2 0 0;
#X connect 4 3 8 0;
#X connect 5 0 6 1;
#X connect 6 0 7 0;
#X connect 8 0 0 1;
#X restore 121 203 pd shouldSetValue;
#X obj 78 250 -;
#X connect 0 0 1 0;
#X connect 1 0 8 0;
#X connect 2 0 11 0;
#X connect 2 0 12 0;
#X connect 3 0 11 0;
#X connect 4 0 12 0;
#X connect 6 0 26 0;
#X connect 6 1 10 0;
#X connect 7 0 9 0;
#X connect 7 1 9 0;
#X connect 8 0 6 0;
#X connect 9 0 5 0;
#X connect 10 0 26 1;
#X connect 11 0 24 0;
#X connect 12 0 25 0;
#X connect 24 0 8 0;
#X connect 25 0 10 0;
#X connect 26 0 7 0;
